<svg xmlns="http://www.w3.org/2000/svg" width="54" height="54" viewBox="0 0 54 54">
    <g transform="translate(-1339.526 -1209.526)">
        <circle cx="27" cy="27" r="27" fill="#4404bf" transform="translate(1339.526 1209.526)"/>
        <path fill="#fff" d="M1.6 26.109A1.6 1.6 0 0 1 .454 23.4l8.755-8.755c1.071-1.051 1.6-1.689 1.6-1.689s-.677-.679-1.6-1.5L.456 2.707A1.594 1.594 0 0 1 1.574 0H1.6a1.583 1.583 0 0 1 1.11.451l11.472 11.474a1.584 1.584 0 0 1 .4 1.576 1.546 1.546 0 0 1-.4.679L2.707 25.655a1.587 1.587 0 0 1-1.107.454zM1.6.637" transform="translate(1360.759 1223.471)"/>
    </g>
</svg>
