<svg xmlns="http://www.w3.org/2000/svg" width="46" height="46" viewBox="0 0 46 46">
    <g transform="translate(-1340 -1210)">
        <circle cx="23" cy="23" r="23" fill="#defe46" transform="translate(1340 1210)"/>
        <path d="M1.384 22.639a1.384 1.384 0 0 1-.991-2.348L7.985 12.7c.928-.911 1.39-1.464 1.39-1.464s-.587-.588-1.39-1.3L.4 2.348A1.382 1.382 0 0 1 1.364 0h.02a1.372 1.372 0 0 1 .963.391L12.3 10.34a1.373 1.373 0 0 1 .344 1.366 1.341 1.341 0 0 1-.344.589l-9.95 9.949a1.376 1.376 0 0 1-.966.395zm0-22.086" transform="translate(1358 1221.681)"/>
    </g>
</svg>
